<svg id="Layer_1" data-name="Layer 1" xmlns="http://www.w3.org/2000/svg" viewBox="0 0 187 369.79"><defs><style>.cls-1,.cls-3{fill:#f15a29;}.cls-1{stroke:#231f20;stroke-miterlimit:10;stroke-width:3px;}.cls-2{fill:#231f20;}</style></defs><title>balloon</title><ellipse class="cls-1" cx="93.5" cy="98" rx="92" ry="96.5"/><path class="cls-2" d="M269.13,301.28c-5,12,.54,24.91,8.87,33.89,9.79,10.57,22.68,17.61,31.8,28.94,9.3,11.54,15,28.86,6.28,42.38-3.88,6-9.79,10.37-14.92,15.27a100.44,100.44,0,0,0-13.25,15.63c-7.48,10.89-16.4,26.71-8.81,39.69,1.63,2.78,5.95.26,4.32-2.52-5.08-8.7-.42-19,4-26.91a94.48,94.48,0,0,1,16.67-21.78c5.77-5.62,12.54-10.47,16.72-17.52A35,35,0,0,0,325,386.53c-1.93-16.7-13.49-29.69-26-39.91-12.84-10.47-33.2-24.62-25.07-44,1.25-3-3.59-4.26-4.82-1.33Z" transform="translate(-178.5 -108.5)"/><path class="cls-2" d="M302.05,132.28a58.78,58.78,0,0,1,23.5,20.46c6.49,9.94,8.6,21.3,9.95,32.91.18,1.58,2.68,1.6,2.5,0-1.4-12-3.58-23.86-10.29-34.17a61.27,61.27,0,0,0-24.4-21.36c-1.44-.71-2.71,1.45-1.26,2.16Z" transform="translate(-178.5 -108.5)"/><circle class="cls-1" cx="98.57" cy="195.99" r="8.6"/><circle class="cls-1" cx="81.25" cy="195.99" r="8.6"/><path class="cls-3" d="M247.7,280.75c1.94,1.93,2.66,4.67,4.22,6.87a9.78,9.78,0,0,0,2.53,2.56c.41.27,4.66,1.9,4.63,2.08-.53,3.15,4.28,4.5,4.82,1.33a5.23,5.23,0,0,0-1.61-5.12c-1.53-1.41-3.77-1.39-5.34-2.63-2.63-2.1-3.28-6.2-5.71-8.63-2.29-2.27-5.82,1.26-3.54,3.54Z" transform="translate(-178.5 -108.5)"/><path class="cls-3" d="M260.59,292.16l-.26,4.43c-.16,2.79,4.31,3.42,4.91.66l.82-3.73a2.51,2.51,0,0,0-4.57-1.92,16.27,16.27,0,0,0-2.37,4.93l4.57-.6-2.32-4c-1.35-2.3-4.41-1.07-4.66,1.27a44.41,44.41,0,0,0-.25,5.53l4.91-.66-1.09-2.66-4.57,1.93.64,2.24,4.18-2.43c-1.21-1.09-2.34-2.19-3.45-3.38-1.89-2-5.68.75-3.92,3l1.59,2.07,2.83-3.68-1.41-.47c-2-.69-4,1.89-2.82,3.67l1,2.17,4.17-2.43a22.09,22.09,0,0,0-6.09-4.46l-1.92,4.57a39.86,39.86,0,0,0,16.91.6L266.12,294l-2.36.19v4.82h3.36l-1.1-4.17-1.57.42.66,4.91,1.9-.06-1.77-4.26-1,.95a2.54,2.54,0,0,0,.59,4.57q2.76,2.13,2.14.18c0-1.16-.63-1.17-2,0-3.11,1-1.8,5.31,1.33,4.82a5.9,5.9,0,0,1,4.65.91l.6-4.56a9.13,9.13,0,0,1-6.29-.37l.6,4.57c4-2,6.72-.59,10.69,0a6.1,6.1,0,0,0,4.88-.94c2.6-2,2.73-6,1.36-8.78s-5.21-5.35-8.35-3.49a4.25,4.25,0,0,0-.6,6.8c1.29,1.19,3.79.83,4.18-1.11.67-3.35-1.72-7.22-5.6-5.67a4,4,0,0,0,0,7.39,2.54,2.54,0,0,0,3.67-2.82,6.51,6.51,0,0,0-8.56-5.23,2.52,2.52,0,0,0-1.11,4.17c1.72,1.83,4.37,4.14,7.06,4,1.38-.09,2.47-.89,3.76-1.32,2.78-.92,5.84-.92,8.75-1.18L284.74,294a12,12,0,0,1-4.86,2.33c-2.73.65-2.16,5,.66,4.91a32.62,32.62,0,0,0,6.07-.76c3.15-.69,1.81-5.45-1.33-4.82L279,296.94c-2.72.55-2.15,5.22.67,4.91a34,34,0,0,0,12.6-3.8c2.85-1.5.33-5.82-2.52-4.32a27,27,0,0,1-10.08,3.12l.66,4.92,6.25-1.25-1.33-4.82a16.47,16.47,0,0,1-4.74.58l.67,4.91a14.85,14.85,0,0,0,6.05-2.84c1.72-1.31,1.52-4.9-1.26-4.66-3.25.3-7,.16-10.15,1s-3.1,2-5.88-1l-1.1,4.18,2.41,1.74,3.67-2.83-1.73,1.28,4.17-1.11q3.71,4.69-.16,5l-1.36-.39c-1.47-.19-2.84-.83-4.35-.92a15.23,15.23,0,0,0-8.16,1.93c-2.09,1.07-1.26,3.86.59,4.57a13.54,13.54,0,0,0,8.95.37,2.53,2.53,0,0,0,.59-4.57,12.3,12.3,0,0,0-8.5-1.42l1.33,4.82c2.38-.79,6.74-1.41,6.55-4.8-.18-3-4.39-4.24-6.7-5l.6,4.57a9.52,9.52,0,0,0,2-1.74,2.53,2.53,0,0,0-1.76-4.27,12.89,12.89,0,0,0-3.22.24c-2.84.47-2.08,4.89.66,4.91a7.16,7.16,0,0,0,5.11-1.89c1.46-1.17.61-3.8-1.11-4.18a12.64,12.64,0,0,0-6,0c-2.34.52-2.43,4.36,0,4.82a9.71,9.71,0,0,0,5-.19c3.13-.94,1.79-5.36-1.33-4.82a33.43,33.43,0,0,1-14.25-.6c-2.64-.67-4.59,3.34-1.93,4.57a18.25,18.25,0,0,1,5.08,3.68,2.52,2.52,0,0,0,4.18-2.44,7.86,7.86,0,0,0-1.54-3.37l-2.82,3.68,1.41.48c1.92.65,4.17-1.93,2.82-3.68l-1.59-2.06-3.93,3c1.11,1.19,2.23,2.29,3.44,3.38a2.53,2.53,0,0,0,4.18-2.44,14.21,14.21,0,0,0-1.15-3.44c-1.11-2.56-5.64-.7-4.56,1.93l1.09,2.66c1,2.43,5,2.39,4.91-.67a44.41,44.41,0,0,1,.25-5.53l-4.66,1.26,2.32,4a2.53,2.53,0,0,0,4.57-.59,8.59,8.59,0,0,1,1.87-3.74l-4.57-1.92-.82,3.72,4.91.67.26-4.43c.18-3.21-4.82-3.2-5,0Z" transform="translate(-178.5 -108.5)"/><path class="cls-3" d="M262.08,269.13c3.22,0,3.22-5,0-5s-3.22,5,0,5Z" transform="translate(-178.5 -108.5)"/></svg>